<?xml version="1.0" encoding="UTF-8" standalone="no"?>
<!-- Created with Inkscape (http://www.inkscape.org/) -->

<svg
   xmlns:dc="http://purl.org/dc/elements/1.1/"
   xmlns:cc="http://creativecommons.org/ns#"
   xmlns:rdf="http://www.w3.org/1999/02/22-rdf-syntax-ns#"
   xmlns:svg="http://www.w3.org/2000/svg"
   xmlns="http://www.w3.org/2000/svg"
   xmlns:sodipodi="http://sodipodi.sourceforge.net/DTD/sodipodi-0.dtd"
   xmlns:inkscape="http://www.inkscape.org/namespaces/inkscape"
   width="210mm"
   height="297mm"
   viewBox="0 0 210 297"
   version="1.1"
   id="svg8"
   inkscape:version="0.92.4 (5da689c313, 2019-01-14)"
   sodipodi:docname="system.svg">
  <defs
     id="defs2" />
  <sodipodi:namedview
     id="base"
     pagecolor="#ffffff"
     bordercolor="#666666"
     borderopacity="1.0"
     inkscape:pageopacity="0.0"
     inkscape:pageshadow="2"
     inkscape:zoom="0.49497475"
     inkscape:cx="232.453"
     inkscape:cy="598.71223"
     inkscape:document-units="mm"
     inkscape:current-layer="layer2"
     showgrid="false"
     inkscape:window-width="1200"
     inkscape:window-height="737"
     inkscape:window-x="-8"
     inkscape:window-y="-8"
     inkscape:window-maximized="1" />
  <metadata
     id="metadata5">
    <rdf:RDF>
      <cc:Work
         rdf:about="">
        <dc:format>image/svg+xml</dc:format>
        <dc:type
           rdf:resource="http://purl.org/dc/dcmitype/StillImage" />
        <dc:title></dc:title>
      </cc:Work>
    </rdf:RDF>
  </metadata>
  <g
     inkscape:groupmode="layer"
     id="layer2"
     inkscape:label="Layer 2"
     style="display:inline">
    <rect
       style="display:inline;fill:#ffff00;stroke-width:0.26458332"
       id="rect3751"
       width="194.03767"
       height="143.25647"
       x="7.4835467"
       y="11.556144"
       ry="0" />
  </g>
  <g
     inkscape:groupmode="layer"
     id="layer3"
     inkscape:label="Layer 3"
     style="display:inline">
    <path
       id="path3715"
       d="m 17.984477,70.890775 c 0.83867,-3.273081 1.737715,-6.52729 2.73575,-9.755278 1.726281,-4.974494 3.342725,-9.985771 5.072162,-14.95921 1.767013,-4.796936 3.716309,-9.523741 5.991821,-14.102144 1.48358,-3.024928 3.290419,-5.856486 5.382924,-8.490637 1.396167,-1.880955 3.054943,-3.542047 4.732335,-5.169447 2.961913,-2.660189 6.27461,-5.446644 10.193684,-6.412007 0.194024,0.0378 0.400973,0.03417 0.582075,0.113392 1.429478,0.625343 1.804853,3.091803 2.13655,4.402165 0.688907,4.80831 0.704946,9.677719 0.750234,14.524688 -0.03222,7.524166 -0.213256,15.04559 -0.179321,22.5708 0.05414,5.729208 0.228833,11.471407 1.107911,17.139671 0.40495,1.746806 0.626798,5.170376 2.235417,6.340716 -0.199639,-2.999703 0.131204,-0.0105 -6.646987,3.331829 -0.169688,0.08367 0.09052,-0.369208 0.104476,-0.557887 0.01839,-0.248809 -0.0052,-0.498952 -0.0079,-0.748425 0,0 6.922534,-3.587726 6.922534,-3.587726 v 0 c 0.04741,0.386453 0.194554,1.43078 0.119899,1.487652 -6.511121,4.960075 -4.701516,6.174584 -7.221014,4.195056 -1.549265,-1.956282 -1.650968,-4.654553 -2.045404,-7.012549 -0.74713,-5.793152 -0.818713,-11.627363 -0.699516,-17.463235 0.0061,-7.471309 0.04234,-14.942775 -0.108783,-22.41233 -0.109204,-4.727826 -0.138192,-9.507267 -1.046083,-14.163813 -0.219168,-0.781278 -0.648348,-2.873408 -1.441564,-3.338992 -0.287412,-0.168698 -0.468032,-0.06164 -0.757394,0.0089 -2.51579,1.200391 -2.410523,1.168385 5.644272,-3.392216 0.199004,-0.112674 -0.340654,0.30573 -0.520885,0.446491 -0.663715,0.518361 -1.349455,1.007242 -1.960174,1.593107 -1.760503,1.559229 -3.427931,3.259453 -4.877551,5.111145 -0.225901,0.273878 -1.634845,1.976377 -1.82449,2.230093 -1.459034,1.951967 -2.654461,4.10045 -3.848584,6.217598 -2.384708,4.534297 -4.36218,9.269545 -6.152555,14.067542 -1.745437,4.912582 -3.298573,9.888839 -4.902988,14.848747 -0.967608,3.128716 -1.84493,6.29059 -2.420945,9.517777 0,0 -7.04993,3.418548 -7.04993,3.418548 z"
       inkscape:connector-curvature="0"
       style="stroke-width:0.26458332" />
    <path
       id="path3717"
       d="m 42.013594,42.902023 c 1.230128,0.09674 2.434032,0.0061 3.649599,-0.161925 0.222399,-0.06029 0.444794,-0.120579 0.667192,-0.180869 0,0 -6.223875,4.733737 -6.223875,4.733737 v 0 c -0.237916,0.04225 -0.475835,0.08449 -0.713751,0.126743 -1.261473,0.150958 -2.525078,0.109514 -3.793331,0.142478 0,0 6.414166,-4.660164 6.414166,-4.660164 z"
       inkscape:connector-curvature="0"
       style="stroke-width:0.26458332" />
    <path
       id="path3719"
       d="m 71.980048,59.184793 c 0.270193,2.019636 0.531876,4.038217 0.70879,6.068814 0.162507,1.842164 0.190349,3.692303 0.300887,5.537198 0.291602,2.871372 0.205134,0.982048 -7.018311,3.549851 -0.228703,0.0813 0.03039,-0.484532 0.04077,-0.727036 0.01421,-0.331726 0.02331,-0.663654 0.033,-0.995542 0.04259,-1.456558 0.03199,-1.141444 0.04669,-2.645915 -0.151693,-3.322863 0.48599,-6.543636 1.333495,-9.733246 0.878036,-3.080943 2.238227,-5.942462 3.982111,-8.616106 1.114404,-1.533578 2.3919,-2.964868 3.88511,-4.137826 7.474485,-4.206444 4.503026,-4.197729 7.925583,-4.080669 0,0 -6.306978,4.690118 -6.306978,4.690118 v 0 c -2.758924,0.833884 -0.631111,0.232587 5.652468,-3.47159 -1.635281,1.006414 -2.908295,2.48299 -4.140155,3.936227 -0.325683,0.463944 -1.287772,1.818894 -1.558816,2.272496 -1.152502,1.928743 -1.914213,4.07394 -2.670167,6.177666 -0.83176,3.106682 -1.485861,6.257472 -1.300909,9.496668 0.01339,1.186085 0.03031,2.371961 0.08569,3.557029 0.01069,0.228934 0.232844,0.559364 0.042,0.686266 -2.247109,1.494219 -4.653095,2.740229 -7.052416,3.97532 -0.106611,0.05488 0.01781,-0.239155 0.02673,-0.35873 0.06018,-1.855841 -0.0044,-3.715854 -0.11892,-5.568315 -0.163076,-1.978303 -0.388183,-3.949319 -0.886865,-5.875388 0,0 6.99022,-3.73729 6.99022,-3.73729 z"
       inkscape:connector-curvature="0"
       style="stroke-width:0.26458332" />
    <path
       id="path3721"
       d="m 94.359795,54.008099 c -0.806148,1.81646 -1.353833,3.742563 -1.846628,5.664829 -0.34318,2.191843 -0.820801,4.028255 0.379931,6.021348 1.554705,1.180931 3.356864,0.554186 4.958258,-0.171225 2.792814,-1.598308 1.195342,-0.682196 -4.810305,2.716898 0,0 7.186699,-2.807301 7.186699,-2.807301 v 0 c -7.805136,4.590926 -4.883599,3.17137 -8.445637,4.860653 -1.974694,0.681344 -4.047829,0.940892 -5.625994,-0.710187 -0.395941,-0.713552 -0.603655,-0.970981 -0.781865,-1.800474 -0.338286,-1.574593 0.08719,-3.231629 0.235148,-4.798912 0.450602,-1.919385 1.018257,-3.801753 1.51832,-5.703612 0,0 7.232073,-3.272017 7.232073,-3.272017 z"
       inkscape:connector-curvature="0"
       style="stroke-width:0.26458332" />
    <path
       id="path3723"
       d="m 112.47378,51.977107 c -1.47125,1.201774 -2.56154,2.755926 -3.44522,4.419269 -0.721,1.424398 -1.12936,3.066812 -0.56817,4.604115 0.10262,0.144344 0.16936,0.322657 0.30786,0.43303 0.69916,0.557157 2.50792,-0.04294 3.2281,-0.280685 2.27536,-1.460117 6.56607,-3.247846 -4.222,2.335807 -0.30743,0.159118 0.53215,-0.443145 0.78935,-0.674835 0.79183,-0.713301 0.78462,-0.742344 1.49468,-1.518119 1.30325,-1.516139 2.4151,-3.196267 3.25045,-5.012504 0.49445,-1.118061 0.58692,-2.343428 1.02151,-3.479165 2.37817,-1.280404 4.65634,-2.767058 7.13451,-3.841216 0.22193,-0.0962 0.33468,0.35001 0.48759,0.537424 0.73695,0.903201 1.40995,1.865858 2.13918,2.778189 1.4982,1.541428 2.87508,2.550054 5.00703,2.972895 0.31975,0.03188 0.63951,0.06375 0.95926,0.09563 0,0 -6.32377,4.46505 -6.32377,4.46505 v 0 c -0.33175,-0.0568 -0.6635,-0.113601 -0.99525,-0.170402 -2.10941,-0.612026 -3.80724,-1.757595 -5.28571,-3.385706 -0.58609,-0.700122 -1.15754,-1.417489 -1.75023,-2.111148 -0.13657,-0.159842 -0.26638,-0.330372 -0.4329,-0.458713 -0.0667,-0.05144 -0.31658,-0.01953 -0.2447,-0.06352 2.18208,-1.335672 4.42625,-2.567151 6.63938,-3.850727 -0.0966,0.02796 -0.21449,0.01717 -0.28971,0.08389 -0.73122,0.648446 -0.45103,2.384885 -1.00729,3.191502 -0.79717,1.897071 -1.90401,3.642908 -3.19982,5.241581 -2.91545,3.590303 -7.10693,5.830057 -11.33953,7.605017 -1.55937,0.355555 -3.33568,0.542509 -4.20804,-1.100958 -0.63345,-1.735669 -0.43391,-3.55164 0.35059,-5.217425 0.0872,-0.170624 0.85141,-1.672738 0.93875,-1.818195 0.62321,-1.038011 1.53497,-1.841571 2.19695,-2.850266 0,0 7.36715,-2.929808 7.36715,-2.929808 z"
       inkscape:connector-curvature="0"
       style="stroke-width:0.26458332" />
    <path
       id="path3725"
       d="m 137.12292,49.197246 c -0.9928,1.507861 -1.73093,3.152643 -2.43069,4.810503 -0.58423,1.447761 -1.25684,2.988088 -0.82355,4.557954 0.59721,0.979879 1.42582,0.538988 2.1772,0.02066 -11.58482,6.500214 -6.37231,3.985664 -4.14114,2.078095 0.70762,-0.604985 0.77244,-0.716304 1.41492,-1.409454 2.33753,-2.545593 3.86399,-5.628965 5.28918,-8.741113 2.34849,-5.243187 3.56685,-10.869613 4.55151,-16.500366 0.96487,-5.972977 1.1707,-12.019635 1.17425,-18.057998 -0.10598,-1.83594 0.0851,-3.708046 -0.19013,-5.535874 -0.039,-0.258727 -0.0886,-0.5258631 -0.21513,-0.7548759 -0.0309,-0.05599 -0.2481,0.048624 -0.19084,0.020106 2.21429,-1.1028505 4.44833,-2.1655775 6.6725,-3.2483665 -0.17204,0.2780929 -0.37719,0.5382537 -0.51613,0.8342791 -0.37197,0.7925308 -0.84066,2.3852912 -1.05247,3.1561433 -0.78138,2.843678 -1.33738,5.716578 -1.8575,8.617125 -1.39797,8.182347 -2.45522,16.43218 -3.01499,24.715194 -0.31218,4.436946 -0.20139,8.872175 0.83099,13.205124 0.49256,1.386721 0.20818,0.757393 0.81801,1.90346 0,0 -6.73645,3.826981 -6.73645,3.826981 v 0 c -0.59002,-1.31168 -0.32091,-0.604168 -0.77799,-2.13346 -0.91613,-4.507278 -0.84811,-9.091549 -0.42395,-13.660445 0.76215,-8.278479 2.01183,-16.503372 2.97704,-24.759522 0.61155,-4.260708 1.23022,-8.531564 2.48328,-12.6615848 2.44492,-1.3207008 4.80505,-2.8121234 7.33476,-3.9621018 0.17536,-0.079716 0.25902,0.3003947 0.31435,0.4849019 0.0899,0.2999046 0.0929,0.6201568 0.11082,0.9327451 0.10921,1.9048426 -0.0731,3.8119816 -0.0615,5.7168306 -0.15769,6.086768 -0.42453,12.166512 -1.22664,18.209403 -0.93318,5.655162 -2.13632,11.298391 -4.35788,16.606782 -1.32908,3.133966 -2.54392,6.183815 -4.81585,8.780526 -2.80566,3.421724 -6.52958,5.144336 -10.53685,7.23447 -1.22747,0.383916 -2.34434,0.05795 -2.92162,-1.164897 -0.50452,-1.746755 -0.0214,-3.45168 0.69266,-5.083024 0.6894,-1.60715 1.30036,-3.273205 2.2178,-4.766196 0,0 7.23207,-3.272017 7.23207,-3.272017 z"
       inkscape:connector-curvature="0"
       style="stroke-width:0.26458332" />
    <path
       id="path3727"
       d="m 156.91301,50.821494 c 0.94378,-1.120129 1.87443,-2.236692 2.67873,-3.462515 1.04789,-1.683543 1.31348,-3.322359 1.12025,-5.262012 -0.57707,-2.098847 -2.48165,-2.072383 -4.29417,-1.81901 -0.4029,0.155075 -0.8176,0.282421 -1.2087,0.465225 -0.42381,0.198096 -1.6399,0.901403 -1.23055,0.674904 1.75005,-0.968348 3.43967,-2.055857 5.25269,-2.900452 0.49023,-0.228375 -0.86158,0.658167 -1.24912,1.035386 -1.2499,1.216615 -1.34953,1.558194 -2.30189,3.033387 -1.35558,2.68256 -2.46503,5.711669 -1.74936,8.749538 0.12163,0.516315 0.33677,1.00603 0.50515,1.509045 1.2771,2.613486 3.64664,3.971505 6.51095,4.21105 0.64597,0.05402 1.29646,5.3e-4 1.94468,7.94e-4 3.19598,-0.21641 6.07915,-1.30688 8.98655,-2.556475 0,0 -5.68067,4.483563 -5.68067,4.483563 v 0 c -0.87889,0.362606 -1.7414,0.767802 -2.63667,1.087821 -2.15608,0.770699 -4.43198,1.210294 -6.71297,1.355701 -0.68045,-0.02918 -1.36557,-0.0028 -2.04135,-0.08754 -3.10294,-0.38924 -5.62686,-2.00746 -6.98519,-4.849339 -0.18427,-0.544325 -0.41613,-1.074799 -0.55281,-1.632977 -0.78234,-3.194722 0.23801,-6.365875 1.58757,-9.250595 0.80926,-1.420982 1.03291,-1.99948 2.12054,-3.205544 2.19015,-2.428642 7.44747,-4.874786 8.95099,-5.741167 0.41935,-0.241641 0.86685,-0.436298 1.32279,-0.598664 0.434,-0.154557 0.8916,-0.23245 1.33741,-0.348676 0.42728,-0.01677 0.85509,-0.07719 1.28186,-0.05032 1.75287,0.11035 3.29321,1.0917 3.72602,2.837082 0.21973,2.056508 0.11043,3.854841 -0.89133,5.720175 -0.72974,1.240491 -1.56695,2.377324 -2.51035,3.463899 0,0 -7.28105,3.137675 -7.28105,3.137675 z"
       inkscape:connector-curvature="0"
       style="stroke-width:0.26458332" />
    <path
       id="path3729"
       d="m 38.088003,105.9586 c -1.266171,-1.09178 -2.773804,-1.35706 -4.39335,-1.30417 -0.401939,0.0993 -0.810408,0.17522 -1.205818,0.298 -0.469852,0.14589 -0.933312,0.31462 -1.386191,0.50684 -0.489969,0.20795 -1.901362,0.95587 -1.438977,0.69222 1.607164,-0.91639 3.155413,-1.97114 4.875708,-2.65182 0.650642,-0.25744 -1.099167,0.86992 -1.60201,1.3565 -0.519946,0.50313 -0.973214,1.07088 -1.459823,1.60633 -3.823864,4.90926 -5.574315,10.95189 -7.021665,16.90272 -0.965628,5.47762 -1.963676,11.10091 -1.608656,16.6932 0.04423,0.6967 0.163295,1.38661 0.244943,2.07992 0.149454,0.53343 0.23134,1.09059 0.448363,1.60028 0.713683,1.67612 2.459677,2.52047 4.222824,2.48369 0.492127,-0.0103 0.974127,-0.14234 1.46119,-0.21351 0.514853,-0.16091 1.045207,-0.27875 1.544564,-0.48274 0.526499,-0.21507 2.012225,-1.05932 1.522489,-0.77015 -6.340769,3.74394 -5.955468,3.56275 -3.203117,1.51384 0,0 6.920565,-2.7687 6.920565,-2.7687 v 0 c -3.770344,3.10078 -1.802153,1.6232 -9.613659,5.94275 -0.511686,0.28295 -1.060073,0.50048 -1.615122,0.68433 -0.537456,0.17803 -1.100881,0.2651 -1.651321,0.39764 -0.532733,0.0251 -1.066255,0.11363 -1.598197,0.0753 -2.02534,-0.14603 -3.897925,-1.33085 -4.615511,-3.27812 -0.207175,-0.5622 -0.264134,-1.16884 -0.396202,-1.75327 -0.05954,-0.73239 -0.159558,-1.46262 -0.178615,-2.19718 -0.147858,-5.69946 1.069471,-11.37056 1.829533,-16.98537 1.356745,-5.96098 2.881729,-11.98492 6.484981,-17.04281 3.627158,-4.35767 4.481942,-4.21594 10.932421,-7.89577 1.321315,-0.75378 2.869321,-1.1302 4.360322,-1.3296 1.847639,0.0839 3.324744,0.52097 4.840896,1.60162 0,0 -6.700565,4.23805 -6.700565,4.23805 z"
       inkscape:connector-curvature="0"
       style="stroke-width:0.26458332" />
    <path
       id="path3731"
       d="m 62.865938,109.50041 c -0.411469,4.94456 -0.29682,9.91793 -0.06134,14.86824 0.476149,4.20522 0.65087,8.65578 2.356644,12.60324 0.204403,0.47303 0.48201,0.91094 0.723016,1.36641 0.623811,0.76702 1.353987,1.63985 2.453206,1.61373 0.276746,-0.007 0.538123,-0.1302 0.807185,-0.19531 0,0 -6.247159,4.61474 -6.247159,4.61474 v 0 c -0.325935,-0.018 -0.660331,0.0221 -0.977802,-0.0539 -1.19843,-0.2867 -1.977369,-1.26699 -2.615755,-2.23836 -0.22924,-0.50089 -0.494215,-0.98691 -0.687718,-1.50266 -1.546458,-4.12182 -1.611194,-8.62902 -2.141125,-12.94438 -0.236501,-4.84343 -0.360278,-9.69537 -0.673357,-14.53239 0,0 7.064208,-3.59939 7.064208,-3.59939 z"
       inkscape:connector-curvature="0"
       style="stroke-width:0.26458332" />
    <path
       id="path3733"
       d="m 75.664969,126.14158 c -0.408022,1.67376 -0.452448,3.40834 -0.509651,5.12218 -0.01368,1.9797 1.291476,1.07889 2.263074,0.36242 -10.309341,6.1417 -5.991058,3.94904 -4.175882,1.52711 0.854877,-1.14064 1.507808,-2.40966 2.186483,-3.65748 1.286824,-2.18381 2.006166,-4.66628 3.380835,-6.7952 2.073357,-2.19727 5.752039,-6.2227 8.218453,-3.90503 0.64543,0.60651 0.940996,1.48901 1.305732,2.27096 0.835705,1.98353 1.729536,3.95914 2.865167,5.79134 0.621361,1.11492 1.399855,2.03808 2.397729,2.82133 0,0 -6.595171,4.1203 -6.595171,4.1203 v 0 c -0.997109,-0.89107 -1.82403,-1.89086 -2.484914,-3.06134 -1.123955,-1.86439 -2.024356,-3.85694 -2.913594,-5.84124 -0.03029,-0.0572 -0.666729,-1.28342 -0.793335,-1.44567 -0.09887,-0.12671 -0.222144,-0.24242 -0.36626,-0.31356 -0.08509,-0.042 -0.365456,0.0419 -0.284586,-0.008 5.724012,-3.51456 8.742731,-4.65152 5.802128,-3.5099 -1.693903,1.94463 -2.327045,4.55452 -3.606271,6.7633 -0.659977,1.26881 -1.289225,2.54712 -2.077019,3.74365 -0.212606,0.32292 -1.118579,1.66849 -1.49983,1.9175 -2.41775,1.57914 -4.943541,2.98632 -7.415313,4.47948 -0.262877,0.11425 -0.511464,0.26972 -0.788636,0.34276 -1.41696,0.37336 -2.441321,-0.75233 -2.352685,-2.10566 0.08321,-1.72087 0.15686,-3.44585 0.311269,-5.16105 0,0 7.132277,-3.45848 7.132277,-3.45848 z"
       inkscape:connector-curvature="0"
       style="stroke-width:0.26458332" />
    <path
       id="path3735"
       d="m 100.77426,113.87647 c -0.61272,1.22575 -0.996388,2.5747 -1.203184,3.92627 0.06218,1.59881 0.744434,2.22284 2.285964,2.37145 1.75743,0.14792 3.44868,-0.31717 5.14311,-0.69847 1.75749,-0.45108 3.51965,-0.52659 5.15266,0.32606 1.47567,1.25233 0.33865,2.80932 -0.54922,4.04128 -1.714,2.23579 -3.82587,4.11839 -5.78808,6.12911 -1.27842,1.27549 -0.66747,0.65877 -1.83445,1.84857 0,0 -7.087882,2.94141 -7.087882,2.94141 v 0 c 1.220573,-1.22967 0.580548,-0.60197 1.923727,-1.87938 1.908045,-1.97109 3.950975,-3.82164 5.669915,-5.96461 0.33406,-0.44539 1.39215,-1.70059 1.49318,-2.25293 0.0501,-0.27367 -0.20303,-0.40026 -0.36344,-0.54449 -1.55812,-0.65335 -3.1952,-0.33308 -4.78985,0.0531 -1.764142,0.39941 -3.553829,0.74238 -5.367791,0.46651 -1.86132,-0.5052 -2.650199,-1.43913 -2.87147,-3.37742 0.108429,-1.41262 0.559411,-2.75968 0.954741,-4.11444 0,0 7.23207,-3.27202 7.23207,-3.27202 z"
       inkscape:connector-curvature="0"
       style="stroke-width:0.26458332" />
    <path
       id="path3737"
       d="m 121.15764,113.70778 c 0.32318,1.3978 1.00506,2.01641 2.32974,2.46682 2.12583,0.5263 4.33154,0.54362 6.50872,0.57669 1.25577,0.11905 3.51208,-0.40424 4.46475,0.66306 0.14607,0.16364 0.21409,0.38291 0.32113,0.57437 0.0266,0.21453 0.0982,0.4282 0.0798,0.64358 -0.13249,1.54898 -2.1176,3.20688 -3.14206,4.20306 -2.03716,2.01084 -4.21442,3.86035 -6.48512,5.59992 0,0 -7.11365,2.8261 -7.11365,2.8261 v 0 c 2.31361,-1.67467 4.50702,-3.5039 6.53682,-5.5158 1.18556,-1.13389 2.61876,-2.30787 3.26871,-3.85066 -0.36788,-0.99192 -3.31012,-0.50882 -4.17014,-0.62982 -2.25226,-0.0589 -4.54039,-0.1119 -6.71508,-0.76355 -1.67333,-0.72158 -2.21942,-1.3809 -2.87381,-3.05648 0,0 6.99022,-3.73729 6.99022,-3.73729 z"
       inkscape:connector-curvature="0"
       style="stroke-width:0.26458332" />
    <path
       id="path3739"
       d="m 160.63115,113.9631 c -0.3983,1.84997 -0.255,3.67875 0.52048,5.39932 1.30492,1.84756 3.08597,2.09622 5.19046,1.75918 0.35085,-0.10043 0.71268,-0.16834 1.05254,-0.30127 0.38057,-0.14886 0.7414,-0.34522 1.10022,-0.54077 0.37172,-0.2026 1.4593,-0.85881 1.08954,-0.65265 -5.63314,3.14065 -7.25359,4.4434 -4.59632,2.41682 0,0 7.13014,-2.8667 7.13014,-2.8667 v 0 c -3.10334,2.66708 -0.82739,0.804 -8.49279,5.26181 -1.08078,0.62853 -2.22876,1.12661 -3.47977,1.2779 -2.45869,0.10113 -4.29311,-0.44858 -5.76183,-2.54752 -0.77578,-1.83109 -1.04196,-3.73894 -0.83389,-5.72373 0,0 7.08122,-3.48239 7.08122,-3.48239 z"
       inkscape:connector-curvature="0"
       style="stroke-width:0.26458332" />
    <path
       id="path3741"
       d="m 144.67557,116.45983 c 0.088,1.99619 0.43313,3.96449 0.65878,5.94709 0,0 -6.83932,3.58006 -6.83932,3.58006 v 0 c -0.20825,-1.9478 -0.49177,-3.88803 -0.8061,-5.8207 0,0 6.98664,-3.70645 6.98664,-3.70645 z"
       inkscape:connector-curvature="0"
       style="stroke-width:0.26458332" />
    <path
       id="path3743"
       d="m 140.40105,99.809759 c 0.14587,0.993431 0.19341,2.096391 0.80709,2.933371 0,0 -6.83511,3.98147 -6.83511,3.98147 v 0 c -0.55304,-0.98487 -0.76173,-2.07616 -0.9622,-3.17755 0,0 6.99022,-3.737291 6.99022,-3.737291 z"
       inkscape:connector-curvature="0"
       style="stroke-width:0.26458332" />
    <path
       id="path3745"
       d="m 182.75305,107.93264 c 1.4826,0.67443 3.09747,1.0665 4.68279,1.43334 1.0861,0.27974 2.3573,0.83702 2.19018,2.19025 -0.033,0.26689 -0.16265,0.51266 -0.24398,0.769 -1.22777,2.08666 -2.88485,3.91783 -4.49391,5.72118 -1.39045,1.43746 -2.61969,3.01212 -3.87941,4.56134 -2.16218,2.5127 -4.19421,3.08146 -7.92043,5.05828 -0.32049,0.17002 -0.58075,-0.51595 -0.65165,-0.87175 -0.039,-0.19576 0.0348,-0.3977 0.0521,-0.59655 0,0 7.10592,-3.43089 7.10592,-3.43089 v 0 c -0.0469,0.0965 -0.0364,0.26422 -0.14066,0.28941 -0.77936,0.18826 0.27774,-0.62988 -0.19585,-0.36195 -11.85045,6.70441 -7.4453,4.91847 -5.41703,2.96127 1.31588,-1.55985 2.55494,-3.18395 3.98165,-4.64784 1.60554,-1.69444 3.12511,-3.50459 4.44539,-5.42875 0.0677,-0.10364 0.45526,-0.62035 0.45827,-0.84282 0.008,-0.62744 -1.35753,-0.80683 -1.6992,-0.94895 -1.64153,-0.43785 -3.3042,-0.85211 -4.87188,-1.51355 0,0 6.59765,-4.34102 6.59765,-4.34102 z"
       inkscape:connector-curvature="0"
       style="stroke-width:0.26458332" />
    <path
       id="path3747"
       d="m 182.05194,105.53846 c -1.72988,0.7229 -3.43259,1.5128 -5.09086,2.38733 -3.31001,1.95368 1.86221,-1.10364 4.77841,-2.73704 0.30119,-0.1687 -0.57896,0.37629 -0.86339,0.57191 -0.70222,0.48295 -0.79022,0.56639 -1.43505,1.07002 0,0 -7.21527,2.90507 -7.21527,2.90507 v 0 c 3.21084,-2.74837 7.06125,-4.59331 10.74622,-6.62885 1.74457,-0.87248 3.51129,-1.70203 5.30675,-2.46496 0,0 -6.22681,4.89652 -6.22681,4.89652 z"
       inkscape:connector-curvature="0"
       style="stroke-width:0.26458332" />
    <path
       id="path3749"
       d="m 180.00393,108.51866 c 1.18874,0.69344 2.59722,0.64702 3.90766,0.42521 0,0 -6.23001,4.64338 -6.23001,4.64338 v 0 c -1.52711,0.12154 -3.04276,-0.005 -4.37822,-0.83053 0,0 6.70057,-4.23806 6.70057,-4.23806 z"
       inkscape:connector-curvature="0"
       style="stroke-width:0.26458332" />
  </g>
</svg>
