<?xml version="1.0" encoding="UTF-8" standalone="no"?>
<!-- Created with Inkscape (http://www.inkscape.org/) -->

<svg
   xmlns:dc="http://purl.org/dc/elements/1.1/"
   xmlns:cc="http://creativecommons.org/ns#"
   xmlns:rdf="http://www.w3.org/1999/02/22-rdf-syntax-ns#"
   xmlns:svg="http://www.w3.org/2000/svg"
   xmlns="http://www.w3.org/2000/svg"
   xmlns:sodipodi="http://sodipodi.sourceforge.net/DTD/sodipodi-0.dtd"
   xmlns:inkscape="http://www.inkscape.org/namespaces/inkscape"
   width="210mm"
   height="297mm"
   viewBox="0 0 210 297"
   version="1.1"
   id="svg8"
   sodipodi:docname="system.svg"
   inkscape:version="0.92.4 (5da689c313, 2019-01-14)">
  <defs
     id="defs2" />
  <sodipodi:namedview
     id="base"
     pagecolor="#ffffff"
     bordercolor="#666666"
     borderopacity="1.0"
     inkscape:pageopacity="0.0"
     inkscape:pageshadow="2"
     inkscape:zoom="0.49497475"
     inkscape:cx="232.453"
     inkscape:cy="598.71223"
     inkscape:document-units="mm"
     inkscape:current-layer="layer4"
     showgrid="false"
     inkscape:window-width="1200"
     inkscape:window-height="737"
     inkscape:window-x="-8"
     inkscape:window-y="-8"
     inkscape:window-maximized="1" />
  <metadata
     id="metadata5">
    <rdf:RDF>
      <cc:Work
         rdf:about="">
        <dc:format>image/svg+xml</dc:format>
        <dc:type
           rdf:resource="http://purl.org/dc/dcmitype/StillImage" />
        <dc:title></dc:title>
      </cc:Work>
    </rdf:RDF>
  </metadata>
  <g
     inkscape:groupmode="layer"
     id="layer2"
     inkscape:label="Layer 2"
     style="display:inline">
    <rect
       style="display:inline;fill:#ffff00;stroke-width:0.26458332"
       id="rect3751"
       width="194.03767"
       height="143.25647"
       x="7.4835467"
       y="11.556144" />
  </g>
  <g
     inkscape:groupmode="layer"
     id="layer4"
     inkscape:label="Layer 4">
    <path
       style="fill:#000000;stroke-width:0.26458332"
       id="path3754"
       d="m 10.409573,29.479957 c 0.294368,-1.701226 0.729825,-3.364085 1.237832,-5.012051 0.397726,-1.632609 1.059816,-3.155738 1.938027,-4.58218 2.039134,-2.74995 6.473934,-6.674909 9.53763,-5.624365 1.437701,1.130215 1.531531,3.154248 1.864886,4.825994 0.487498,3.44056 0.99625,6.877317 1.532885,10.310856 0.658796,4.365426 1.388811,8.721675 1.881201,13.110223 0.37484,3.439618 0.54824,6.893949 0.643818,10.350944 0.06045,2.036895 0.06852,4.074875 0.09316,6.112434 0.05742,0.944549 -0.07561,1.881221 -0.251876,2.806247 -1.430877,-2.885842 0.04304,-0.352528 -7.073888,3.34623 -0.124404,0.06465 0.10468,-0.261815 0.132182,-0.399293 0.187404,-0.936826 0.256205,-1.916163 0.413956,-2.860027 0.532412,-3.220328 0.927768,-6.460913 1.451998,-9.682826 0.798257,-4.641604 1.764264,-9.245161 2.885222,-13.818529 0.901271,-3.79954 2.129811,-7.502765 3.343172,-11.209527 0.654764,-1.70275 1.088993,-3.52857 2.025806,-5.108534 4.673174,-2.80914 6.691167,-6.631334 8.885957,-2.310053 0.656934,1.747142 1.125291,3.557761 1.613474,5.357479 0.921604,2.843536 1.454793,5.76389 1.897774,8.713383 0.444762,3.109045 0.546317,6.246897 0.609275,9.381802 -0.03831,2.657968 0.0735,5.304674 0.282807,7.952979 0.209378,2.075526 0.15153,4.171754 0.369938,6.244875 -0.68445,1.345396 0.40867,0.242057 0.284441,0.303784 -2.257838,1.1219 -4.461868,2.351926 -6.737888,3.436464 -0.157083,0.07485 0.261062,-0.238966 0.346136,-0.390755 0.22578,-0.402847 0.450088,-1.269442 0.571873,-1.684438 0.790978,-2.840749 1.130718,-5.780717 1.528165,-8.695304 0.521671,-4.137988 1.146932,-8.263532 1.797187,-12.38327 0.607307,-3.907676 1.186363,-7.820001 1.807782,-11.725383 0.415846,-2.28433 0.735338,-4.604742 1.413229,-6.830299 0.893448,-2.933454 6.498609,-8.302694 8.437237,-4.931683 0.113999,0.198228 0.168725,0.425077 0.25309,0.637616 0.571738,2.179588 0.812925,4.449703 1.011968,6.691598 0.303133,3.409076 0.311322,6.833711 0.353237,10.25322 -0.03837,3.671232 -0.03946,7.341966 0.321977,10.998076 0.322773,2.520656 0.570574,5.049702 0.892514,7.570359 0.304797,1.415544 0.585583,2.841794 1.06119,4.21115 0.203251,0.366686 0.398347,0.734867 0.57825,1.113505 0,0 -6.87565,3.890338 -6.87565,3.890338 v 0 C 52.582508,59.441992 52.369137,59.048501 52.172565,58.643927 51.7116,57.200879 51.47842,55.702916 51.189974,54.217352 50.87185,51.668785 50.683183,49.110328 50.41742,46.55544 50.099938,42.871048 50.114353,39.181375 50.098782,35.486014 c -0.02635,-3.386653 -0.08137,-6.777717 -0.39479,-10.152201 -0.255691,-2.137704 -0.499618,-4.318309 -1.147432,-6.376316 -1.048506,-2.617333 -5.286652,2.713958 6.340044,-4.157524 0.125894,-0.0744 -0.294166,0.07043 -0.407241,0.163164 -0.290084,0.237894 -0.568794,0.857581 -0.723123,1.148837 -0.786212,2.212392 -1.20183,4.536839 -1.671148,6.832198 -0.758377,3.90693 -1.263869,7.860993 -1.951616,11.780842 -0.649436,4.092321 -1.183786,8.20284 -1.69875,12.313513 -0.369258,2.896526 -0.573873,5.825955 -1.266947,8.670861 -0.07045,0.316309 -0.140901,0.632621 -0.211351,0.948933 -0.07233,0.266658 -0.15575,0.530554 -0.216993,0.799973 -0.05345,0.235144 0.0783,0.58532 -0.126746,0.71223 -2.723388,1.685649 -6.870393,6.534665 -7.796562,2.814074 -0.182814,-2.095445 -0.07951,-4.208751 -0.291695,-6.304556 -0.184766,-2.676511 -0.283591,-5.347715 -0.226647,-8.031786 -0.03614,-3.112305 -0.116226,-6.231385 -0.509104,-9.322594 C 37.378555,34.41918 36.72456,31.572176 35.828197,28.773601 35.277319,27.058538 34.81239,25.314777 34.138412,23.642583 33.95631,23.326361 33.750604,22.82957 33.390088,22.655304 c -0.128952,-0.06233 -0.532005,0.204566 -0.409342,0.130628 2.109065,-1.271259 4.217572,-2.543448 6.326357,-3.815172 -0.59045,0.497982 -0.779296,1.028497 -1.086451,1.734489 -0.464132,1.066798 -0.899996,2.142726 -1.314333,3.230379 -1.323015,3.71768 -2.639632,7.43751 -3.613859,11.26656 -1.131594,4.520075 -2.063803,9.079439 -2.760531,13.687573 -0.49082,3.188245 -0.854223,6.392685 -1.261835,9.592135 -0.142602,0.918919 -0.265189,1.813205 -0.255799,2.744943 0.0019,0.174655 0.16809,0.42521 0.02368,0.523457 -6.853444,4.662565 -5.497619,6.412381 -7.255059,3.637616 -0.04585,-0.953606 0.599356,-1.896927 0.410161,-2.879497 0.03637,-2.059458 0.05894,-4.118972 0.06884,-6.178746 -0.01548,-3.464425 -0.08906,-6.932718 -0.42626,-10.383094 -0.485322,-4.376785 -1.149956,-8.729561 -1.855492,-13.075848 -0.620591,-3.378234 -1.20023,-6.763251 -1.771616,-10.148786 -0.196724,-0.87561 -0.471025,-3.190569 -1.22426,-3.796332 -0.08795,-0.07073 -0.209085,-0.08507 -0.313628,-0.127601 -2.825171,0.31531 -0.286067,0.08302 5.99219,-3.661117 0.153882,-0.09177 -0.342019,0.114227 -0.497827,0.20269 -0.611563,0.347229 -0.948161,0.938719 -1.442281,1.416861 -0.940221,1.345678 -1.666316,2.799943 -2.062044,4.403004 -0.507658,1.584672 -1.015851,3.177464 -1.146361,4.847027 0,0 -7.104765,3.473484 -7.104765,3.473484 z"
       inkscape:connector-curvature="0" />
    <path
       style="fill:#000000;stroke-width:0.26458332"
       id="path3756"
       d="m 71.386956,51.35595 c 0.985554,-1.183272 1.711743,-2.56403 2.342491,-3.962001 0.58542,-1.408181 0.721106,-2.922561 0.812035,-4.427381 -0.01929,-1.411298 -0.199824,-2.264913 -1.475555,-2.979494 -1.646435,-0.386395 -2.860809,0.150119 -4.232256,1.016722 10.712397,-6.205728 6.130793,-4.210333 4.475414,-1.839589 -0.714203,1.022839 -1.129554,2.153647 -1.540052,3.319462 -0.718183,2.141149 -0.692547,4.359958 -0.07677,6.512586 0.402842,1.54336 1.485321,2.392598 3.017798,2.657475 1.139923,0.154517 2.200045,-0.02445 3.288435,-0.346466 0,0 -6.142694,4.692171 -6.142694,4.692171 v 0 c -1.19598,0.237485 -2.376103,0.374806 -3.581818,0.08272 -1.674714,-0.573487 -2.963039,-1.582082 -3.389489,-3.377862 -0.635326,-2.278888 -0.741699,-4.687191 -0.03457,-6.968122 1.864733,-6.063731 3.356838,-5.871914 10.02401,-9.60978 1.540404,-0.757513 3.160315,-1.15311 4.784391,-0.374793 1.366192,0.97895 1.822792,2.029248 1.861834,3.701037 -0.05625,1.582853 -0.208545,3.181172 -0.728851,4.687096 -0.546282,1.424564 -1.28896,2.807925 -2.123699,4.078713 0,0 -7.280661,3.137509 -7.280661,3.137509 z"
       inkscape:connector-curvature="0" />
    <path
       style="fill:#000000;stroke-width:0.26458332"
       id="path3758"
       d="m 88.016029,44.752339 c 0.203808,0.916895 0.724574,1.981639 1.601192,2.412254 0.472199,0.109881 0.967988,0.05789 1.400072,-0.179846 0.182753,-0.100554 0.685276,-0.473532 0.502679,-0.372694 -5.814949,3.211269 -8.066424,4.908624 -5.464538,2.992816 1.472118,-1.265593 2.583786,-2.886152 3.730419,-4.438336 1.083053,-1.336278 2.051828,-2.772486 3.294142,-3.969149 2.391235,-1.371068 4.691544,-2.914587 7.173715,-4.113202 0.21123,-0.102002 0.43786,0.193463 0.60706,0.355936 1.01271,0.972495 1.03843,2.757355 1.176,4.033361 0.3101,4.088792 -0.33724,8.179128 -0.84711,12.22779 -0.6888,4.990566 -1.88621,9.901251 -3.245295,14.74751 -1.168855,3.80302 -2.765589,7.431029 -4.607333,10.948792 -1.081622,2.142664 -2.540293,4.026167 -4.488423,5.428662 -2.508213,1.384186 -4.950735,2.894738 -7.524639,4.152556 -0.330658,0.161586 -0.734266,0.06739 -1.102273,0.06326 -2.11556,-0.02376 -3.638134,-0.727469 -5.505304,-1.641748 -2.709143,-1.279361 -4.599268,-3.51155 -6.109523,-6.02784 0,0 6.561188,-3.79104 6.561188,-3.79104 v 0 c 1.497161,2.661666 3.047328,4.301553 5.833068,5.655812 1.413062,0.613011 2.706351,1.142265 4.265371,1.211731 0.37764,0.01683 0.758439,0.01728 1.133689,-0.02833 0.346861,-0.04217 1.311119,-0.429739 1.021853,-0.233738 -1.863193,1.262464 -3.86248,2.311376 -5.793719,3.467065 0.418262,-0.261448 1.259166,-0.768503 1.630003,-1.079042 1.323279,-1.108115 2.300507,-2.612837 3.172042,-4.077642 1.930043,-3.489656 3.689016,-7.066769 4.860565,-10.894295 1.468437,-4.790067 2.656591,-9.672323 3.30599,-14.646087 0.498573,-3.945729 1.063675,-7.947475 0.665887,-11.927033 -0.113239,-0.81589 -0.16274,-1.437132 -0.394599,-2.215766 -0.03784,-0.127082 -0.238443,-0.833057 -0.525468,-0.928643 -0.0881,-0.02934 -0.343588,0.136652 -0.26411,0.08863 2.074947,-1.253858 4.170696,-2.472968 6.25604,-3.709453 -1.406706,1.032369 -2.317796,2.52527 -3.450922,3.829772 -1.131541,1.588267 -2.29711,3.162874 -3.590692,4.623221 -2.752021,2.198833 -1.096486,0.923263 -7.888526,4.793194 -0.764246,0.435448 -1.69446,0.278524 -2.432296,-0.09745 -0.92017,-0.755174 -1.559229,-1.802183 -1.946045,-2.923926 0,0 6.98984,-3.737089 6.98984,-3.737089 z"
       inkscape:connector-curvature="0" />
    <path
       style="fill:#000000;stroke-width:0.26458332"
       id="path3760"
       d="m 110.35632,39.642798 c -1.04156,1.113631 -1.83306,2.404822 -2.56096,3.736343 -0.53142,1.096557 -1.12917,2.275792 -0.69675,3.492071 0.72161,0.8269 1.63396,0.291515 2.42785,-0.129908 -11.312416,6.25207 -6.79305,4.291894 -4.77103,2.400594 0.67268,-0.62919 1.26989,-1.327335 1.87172,-2.022472 0.90861,-1.152303 1.66294,-2.41313 2.70914,-3.452003 6.6241,-3.955156 5.90674,-5.777751 9.98443,-2.414889 1.24469,0.980061 2.60431,1.794478 4.11321,2.281618 0.96101,0.188174 1.89864,0.158589 2.72435,-0.394372 0,0 -6.18975,4.894154 -6.18975,4.894154 v 0 c -1.00987,0.240197 -1.99377,0.208561 -2.98465,-0.140377 -1.54875,-0.591527 -2.96495,-1.456119 -4.25791,-2.494876 -0.52903,-0.402746 -1.08994,-0.909851 -1.7536,-1.081965 -0.39764,-0.103124 -0.71939,0.173267 -0.68524,0.152863 2.10615,-1.258303 4.22619,-2.49319 6.33929,-3.739788 -1.24984,0.843677 -1.99706,2.165522 -2.86248,3.365241 -0.77231,0.927322 -1.54008,1.909167 -2.42051,2.737559 -2.25389,2.120662 -6.70178,1.745178 -7.96925,4.762992 -1.3841,0.447857 -2.26173,0.325686 -3.15253,-0.907566 -0.580962,-1.527455 -0.20217,-2.689844 0.48454,-4.122412 0.67709,-1.312069 1.36755,-2.699213 2.36947,-3.785298 0,0 7.28066,-3.137509 7.28066,-3.137509 z"
       inkscape:connector-curvature="0" />
    <path
       style="fill:#000000;stroke-width:0.26458332"
       id="path3762"
       d="m 132.84689,46.017161 c -0.17103,1.305044 -0.31822,2.704835 0.55354,3.781914 0.81983,0.720868 1.61661,0.336466 2.52322,0.06721 2.51851,-1.387443 1.2372,-0.684197 -5.8253,3.318714 -0.16121,0.09137 0.322,-0.183663 0.47937,-0.281498 0.54955,-0.341649 1.03632,-0.74245 1.53345,-1.154668 1.45971,-1.406893 2.53496,-3.148529 3.57327,-4.874385 1.61735,-2.693228 2.40045,-5.713277 3.07759,-8.747844 1.00885,-4.417809 0.90242,-8.936234 0.69117,-13.427402 -0.28903,-3.115341 -0.88146,-6.1859 -2.57705,-8.851071 -0.48798,-0.508577 -1.04393,-1.367804 -1.81868,-1.505078 -0.49129,-0.08705 -0.96296,0.537397 -0.83462,0.469548 2.11267,-1.116906 4.17604,-2.324666 6.26406,-3.487 -1.20981,1.652875 -1.60032,3.74385 -2.021,5.707233 -0.65809,3.136561 -0.80825,6.333586 -0.73517,9.52748 0.0952,3.634423 1.06635,7.073755 2.44384,10.407023 1.06598,2.254012 2.3854,4.381958 3.8131,6.423054 0.15494,0.257733 0.30989,0.515464 0.46483,0.773197 0,0 -6.7258,3.891217 -6.7258,3.891217 v 0 c -0.14244,-0.246812 -0.28488,-0.493623 -0.42732,-0.740437 -1.38709,-2.131748 -2.63166,-4.364455 -3.71641,-6.66429 -1.34605,-3.434215 -2.35601,-6.943013 -2.56526,-10.650006 -0.0733,-3.222389 -0.0115,-6.449981 0.5684,-9.632246 0.3877,-2.059187 0.77993,-4.107923 1.66513,-6.025729 2.38002,-1.467987 4.71471,-3.012148 7.14006,-4.4039608 1.07903,-0.6192097 2.65432,1.3927068 3.13593,2.0471538 1.68043,2.845391 2.23582,6.070493 2.47737,9.336963 0.2118,4.511718 0.3461,9.077517 -0.48859,13.538763 -0.6146,3.064819 -1.28702,6.129133 -2.82112,8.891161 -0.97174,1.765329 -2.04453,3.487073 -3.34246,5.032182 -0.57289,0.584398 -1.20356,1.170919 -1.9159,1.578485 -7.34967,4.205177 -4.5843,3.309782 -7.75561,4.289193 -1.1773,0.272962 -2.19344,0.08085 -3.03738,-0.848434 -0.9582,-1.38135 -0.87611,-2.694435 -0.90142,-4.312965 0,0 7.10476,-3.473482 7.10476,-3.473482 z"
       inkscape:connector-curvature="0" />
    <path
       style="fill:#000000;stroke-width:0.26458332"
       id="path3764"
       d="m 156.4549,47.800458 c 0.62308,1.362916 1.21534,2.728963 1.63005,4.170981 0.6758,3.759592 0.52151,2.071955 -7.01076,4.717331 -0.21256,0.07465 -0.11758,-0.436124 -0.1492,-0.659175 -0.048,-0.338717 -0.0594,-0.681615 -0.0891,-1.022424 -0.14716,-2.78434 0.1994,-5.539949 0.75443,-8.260599 0.48424,-2.177386 1.21294,-4.286446 2.10198,-6.328595 0.29817,-0.696188 0.68552,-1.347475 1.06093,-2.003271 0,0 7.1434,-3.181806 7.1434,-3.181806 v 0 c -0.3774,0.653 -0.79887,1.277994 -1.13601,1.953753 -0.94341,2.013727 -1.78769,4.070686 -2.30609,6.24184 -0.58189,2.624355 -0.987,5.277877 -0.76026,7.977124 0.0491,0.296286 0.0885,0.594347 0.14736,0.888857 0.0288,0.144011 0.24109,0.349666 0.11518,0.425249 -2.2674,1.361096 -4.72618,2.381758 -7.01062,3.714031 -0.0999,0.05826 0.17065,0.273322 0.27127,0.216307 0.2752,-0.155943 -0.27773,-0.860512 0.002,-0.948954 -0.35354,-1.404337 -0.8721,-2.750807 -1.66185,-3.973211 0,0 6.8977,-3.927438 6.8977,-3.927438 z"
       inkscape:connector-curvature="0" />
    <path
       style="fill:#000000;stroke-width:0.26458332"
       id="path3766"
       d="m 171.88181,45.426275 c -0.40984,1.726737 -0.42644,3.512865 -0.58547,5.272598 -0.13714,1.689698 -0.44673,3.377755 -0.38281,5.077058 0.52546,3.107182 2.68501,-0.275289 -6.8968,3.975258 -0.10796,0.04789 0.0929,-0.221014 0.10445,-0.338539 0.0526,-0.533503 -0.0318,-1.163455 -0.0778,-1.68579 -0.0423,-0.349454 -0.0847,-0.69891 -0.12701,-1.048364 0,0 6.83106,-3.598024 6.83106,-3.598024 v 0 c 0.0526,0.347099 0.10529,0.694201 0.15794,1.0413 0.10316,0.63596 0.36263,2.295996 0.35172,2.3027 -5.86477,3.601545 -6.93408,6.356001 -7.30815,2.93461 -0.0713,-1.748848 0.25584,-3.486962 0.43761,-5.221613 0.17457,-1.747017 0.17896,-3.505692 0.36333,-5.252899 0,0 7.1319,-3.458295 7.1319,-3.458295 z"
       inkscape:connector-curvature="0" />
    <path
       style="fill:#000000;stroke-width:0.26458332"
       id="path3768"
       d="m 168.16994,35.199579 c -0.008,0.172376 -0.0155,0.344752 -0.0233,0.517128 0,0 -7.0172,3.575444 -7.0172,3.575444 v 0 c -0.008,-0.164457 -0.0156,-0.328914 -0.0233,-0.493371 0,0 7.06383,-3.599201 7.06383,-3.599201 z"
       inkscape:connector-curvature="0" />
    <path
       style="fill:#000000;stroke-width:0.26458332"
       id="path3770"
       d="m 184.23306,44.217801 c 0.32472,1.514655 0.78284,2.991607 1.2405,4.470194 0.35806,1.456645 0.93848,2.837156 1.58122,4.186745 0.14143,0.331467 0.27948,0.700974 0.4775,1.007801 0.0594,0.09208 0.10449,0.227205 0.21126,0.251904 0.0684,0.01582 0.17728,-0.208359 0.11476,-0.176493 -6.73117,3.430749 -8.17136,5.59434 -6.34594,3.045254 0.87189,-2.480233 1.32552,-5.091864 1.89214,-7.655026 0.6989,-3.132082 1.10275,-6.317054 1.6031,-9.483412 0.23163,-1.530192 0.54195,-3.056763 0.60963,-4.606425 0.008,0.02649 0.0169,0.05298 0.0253,0.07947 0,0 6.99532,-3.856638 6.99532,-3.856638 v 0 c 0.0312,0.09386 0.0624,0.187725 0.0936,0.281588 -0.38134,1.560788 -0.43976,3.194333 -0.85764,4.750724 -0.60042,3.179286 -1.02938,6.390071 -1.68557,9.559279 -0.54578,2.550589 -0.95363,5.128466 -1.54774,7.668863 -0.97722,3.816609 -7.36666,7.379168 -8.40659,2.988464 -0.62501,-1.399355 -1.24337,-2.812355 -1.56671,-4.318122 -0.44297,-1.496481 -0.94257,-2.974493 -1.42401,-4.457089 0,0 6.98984,-3.737086 6.98984,-3.737086 z"
       inkscape:connector-curvature="0" />
    <path
       style="fill:#000000;stroke-width:0.26458332"
       id="path3772"
       d="m 194.22059,44.642791 c -0.17331,-0.995193 -0.35472,-2.085261 -0.9251,-2.93855 -0.62928,-0.557244 -1.54492,-0.631304 -2.34053,-0.486862 -2.34396,1.206243 -5.76761,3.058101 5.07564,-2.911319 0.21128,-0.116316 -0.39661,0.276119 -0.57897,0.433961 -0.64309,0.556631 -0.67256,0.668139 -1.19689,1.350299 -1.07769,1.606269 -1.34393,3.138516 -1.13597,5.023276 0.3703,1.805588 1.69369,2.979076 3.24176,3.83029 2.52822,1.00783 5.23969,0.540539 7.80181,-0.05931 2.01542,-0.703289 1.02481,-0.324252 2.97262,-1.135073 0,0 -5.95504,4.680714 -5.95504,4.680714 v 0 c -1.98084,0.750576 -0.96926,0.406607 -3.03608,1.027933 -2.75015,0.558588 -5.64489,0.932923 -8.27912,-0.299371 -1.71254,-1.049279 -3.13613,-2.416408 -3.62879,-4.435377 -0.26821,-2.129004 -0.16661,-3.615594 0.91478,-5.535377 2.13322,-3.495529 6.15826,-5.876173 10.15071,-6.632694 1.07564,0.06009 2.10473,0.291523 2.80616,1.180897 0.5812,0.964681 0.81581,2.089197 1.10285,3.169478 0,0 -6.98984,3.737086 -6.98984,3.737085 z"
       inkscape:connector-curvature="0" />
    <path
       style="fill:#000000;stroke-width:0.26458332"
       id="path3774"
       d="m 39.190996,100.15056 c -2.305243,0.35527 -4.512961,1.1628 -6.708857,1.92309 -0.841941,0.36399 -1.790192,0.75712 -2.606884,1.17731 -0.421304,0.21676 -1.653487,0.92612 -1.240415,0.69406 8.758304,-4.920309 6.166448,-3.94032 4.17331,-1.97005 -0.415094,0.41034 -0.782071,0.86664 -1.173107,1.29996 -2.759178,3.53744 -3.733739,7.9515 -4.413691,12.28864 -0.365961,3.99392 -0.336193,8.13725 0.72636,12.03682 0.167048,0.61305 0.399804,1.20628 0.599707,1.80943 1.37096,3.59005 4.116798,5.40517 7.564782,6.73274 2.773518,0.92042 5.596276,0.73797 8.388032,0.0662 2.388275,-0.45292 4.581927,-1.47986 6.811846,-2.39261 2.449732,-1.1982 7.007424,-3.80735 -3.762399,2.25709 -0.260905,0.14691 0.510964,-0.31236 0.764371,-0.47187 0.77511,-0.48788 0.573143,-0.35788 1.268561,-0.86608 0.425619,-0.3171 0.731239,-0.7104 0.98339,-1.16826 0,0 7.155431,-3.32132 7.155431,-3.32132 v 0 c -0.170069,0.61783 -0.411202,1.12967 -0.889706,1.58208 -0.650997,0.5617 -1.328815,1.02617 -2.073296,1.45991 -3.135866,1.82695 -6.178336,3.83277 -9.501698,5.30166 -2.219913,0.92829 -4.466585,1.79569 -6.842599,2.24253 -2.893518,0.55794 -5.776484,0.56541 -8.5764,-0.49387 -3.517063,-1.53064 -6.479752,-3.58171 -7.836713,-7.33311 -0.195922,-0.63402 -0.425486,-1.25862 -0.587767,-1.90207 -1.009668,-4.0034 -0.983898,-8.21379 -0.780218,-12.30522 0.629952,-4.37555 1.517636,-8.88704 4.071527,-12.59011 0.294771,-0.36107 1.741127,-2.20323 2.197407,-2.4994 3.691996,-2.3965 7.474085,-4.731403 11.592296,-6.315154 2.286373,-0.785072 4.59183,-1.498714 6.945825,-2.053876 0,0 -6.249095,4.8115 -6.249095,4.8115 z"
       inkscape:connector-curvature="0" />
    <path
       style="fill:#000000;stroke-width:0.26458332"
       id="path3776"
       d="m 59.628605,124.53805 c -0.429794,1.55306 -0.346927,3.13513 0.123643,4.66228 0.820777,1.92302 2.49972,2.34324 4.423619,2.43621 1.200076,-0.0647 2.402599,-0.27736 3.536992,-0.68408 2.079442,-0.74558 8.329205,-4.59428 -3.153489,1.97341 2.347462,-1.48972 4.346358,-3.41507 6.188638,-5.47909 0.943179,-1.15303 2.221516,-2.5028 1.85543,-4.13602 -0.05495,-0.24515 -0.180993,-0.46874 -0.271488,-0.70311 -0.906074,-1.73884 -2.648691,-2.02532 -4.425834,-2.26969 -2.369182,-0.0208 -4.756192,0.31503 -7.079692,0.77423 -1.220758,0.25065 -0.618979,0.16377 -1.80395,0.2701 0,0 6.243153,-4.64316 6.243153,-4.64316 v 0 c 1.116867,-0.15179 0.539838,-0.0611 1.730219,-0.27736 2.380321,-0.37664 4.807066,-0.72531 7.219238,-0.55951 2.157384,0.37686 3.803968,0.86139 4.905211,2.91309 1.065356,2.57042 0.3409,3.59882 -1.307682,5.65655 -1.855763,2.0949 -3.815027,4.09155 -6.116497,5.70533 -4.569608,2.64094 -8.426273,5.92385 -13.77959,5.9228 -2.274519,-0.28691 -4.002214,-0.93378 -4.980511,-3.15688 -0.526674,-1.60003 -0.664543,-3.27371 -0.439301,-4.9468 0,0 7.131891,-3.4583 7.131891,-3.4583 z"
       inkscape:connector-curvature="0" />
    <path
       style="fill:#000000;stroke-width:0.26458332"
       id="path3778"
       d="m 104.0766,118.81199 c 1.89509,0.0448 3.80736,0.15893 5.69534,-0.046 1.00942,-0.13732 0.53588,-0.0271 1.42545,-0.30926 0,0 -6.22569,4.74775 -6.22569,4.74775 v 0 c -0.92558,0.147 -0.44159,0.086 -1.45299,0.17487 -1.94608,0.0745 -3.895572,-0.029 -5.841347,0.0819 0,0 6.399237,-4.64932 6.399237,-4.64932 z"
       inkscape:connector-curvature="0" />
    <path
       style="fill:#000000;stroke-width:0.26458332"
       id="path3780"
       d="m 127.44068,117.72549 c -1.32908,1.02489 -2.32838,2.42366 -3.13277,3.88031 -0.81106,1.41805 -1.30877,2.88939 -1.22658,4.5258 0.21999,1.44733 1.39198,2.27295 2.64691,2.82769 1.88858,0.4525 3.7944,0.87802 5.70764,1.22765 2.01044,0.32436 4.03064,0.5035 6.04574,0.16811 0.71781,-0.17513 1.33836,-0.29296 2.01933,-0.59324 0.31473,-0.13878 1.20422,-0.66544 0.90558,-0.49475 -10.1124,5.77999 -6.40407,3.97587 -4.2782,2.0562 1.57892,-1.48852 2.18817,-3.55705 2.667,-5.60677 0.3395,-2.24344 0.22808,-4.49716 -0.3485,-6.68572 -0.53202,-1.75107 -1.6189,-3.01028 -3.29196,-3.71309 -1.87366,-0.79391 -3.93576,-0.72167 -5.92373,-0.53585 -2.29549,0.29211 -4.50703,0.89485 -6.60426,1.86725 -2.74957,1.72167 -1.07586,0.65706 5.20017,-2.8932 0,0 -7.23823,2.88765 -7.23823,2.88765 v 0 c 7.53188,-4.52508 4.74332,-3.09674 8.09235,-4.7812 2.1638,-0.86287 4.41783,-1.4265 6.74194,-1.64524 2.12255,-0.098 4.26657,-0.13414 6.22849,0.80908 1.76874,0.93699 2.99601,2.38606 3.57389,4.32771 0.60655,2.30086 0.76727,4.6443 0.4917,7.0147 -0.4,2.12602 -0.96754,4.3477 -2.42697,6.00757 -3.23882,3.26308 -7.48681,5.7323 -12.00615,6.60334 -2.07176,0.18842 -4.13702,0.0113 -6.18077,-0.37215 -1.97004,-0.39387 -3.97981,-0.71557 -5.88274,-1.35751 -1.45339,-0.77069 -2.74783,-1.8177 -3.06678,-3.52024 -0.18058,-1.76701 0.1967,-3.39665 1.09166,-4.94354 0.74851,-1.51356 1.68818,-2.88216 2.82848,-4.13091 0,0 7.36676,-2.92965 7.36676,-2.92965 z"
       inkscape:connector-curvature="0" />
    <path
       style="fill:#000000;stroke-width:0.26458332"
       id="path3782"
       d="m 153.6708,139.14826 c -0.1838,1.83924 -0.0904,3.69714 -0.0423,5.54231 0.0893,1.07579 -0.0672,2.18494 0.17944,3.24373 -2.40261,1.13766 -4.72896,2.45281 -7.20785,3.41299 -0.18273,0.0708 -0.09,-0.38215 -0.11513,-0.57648 -0.0336,-0.25944 -0.0503,-0.52106 -0.0609,-0.78245 -0.0582,-1.43555 -0.036,-2.87376 -0.003,-4.30927 0.211,-3.98364 0.84525,-7.91882 1.60365,-11.8292 0.8586,-4.38717 2.06207,-8.69818 3.39058,-12.96362 0.97986,-3.33091 2.4398,-6.46914 4.30304,-9.39016 0.64951,-0.82074 1.34114,-1.74143 2.27267,-2.27441 5.06115,-2.89578 5.42698,-4.05406 9.36196,-4.39045 2.39898,0.24016 3.41667,1.24458 4.88515,3.04602 1.59128,2.3159 2.19825,4.79784 2.39941,7.55578 0.01,2.39909 -0.96354,4.42947 -2.59185,6.12668 -3.72964,3.00148 -8.00623,5.53507 -12.80855,5.80009 -1.9175,-0.14763 -3.99295,-0.0388 -5.62977,-1.18043 -1.14437,-1.11447 -0.64246,-2.466 -0.0412,-3.72604 0.58877,-0.99247 0.26434,-0.50511 0.97826,-1.45873 0,0 7.14876,-3.04513 7.14876,-3.04513 v 0 c -0.74819,0.83405 -0.40988,0.39854 -1.01978,1.30274 -0.44181,0.77305 -1.24634,1.91953 -0.45546,2.68952 1.52522,0.92979 3.47192,0.80808 5.19166,0.84779 1.15695,-0.14704 2.24853,-0.34599 3.34968,-0.74687 0.34238,-0.12465 1.3176,-0.61389 1.00934,-0.41962 -1.59651,1.00616 -8.27735,4.91861 -4.87555,2.87749 1.74702,-1.50333 2.79677,-3.18924 2.94139,-5.54943 -0.12509,-2.65429 -0.59523,-4.91328 -2.19993,-7.10653 -1.30541,-1.51184 -2.41896,-2.46006 -4.51743,-2.36857 -3.03141,0.47195 -5.10028,2.3868 4.07761,-3.09159 0.28145,-0.168 -0.56665,0.33161 -0.8324,0.52349 -0.81899,0.59133 -0.93458,0.78391 -1.6406,1.52588 -2.00578,2.85511 -3.58398,5.96377 -4.6284,9.3028 -1.34894,4.22994 -2.53791,8.51647 -3.39894,12.8744 -0.747,3.84798 -1.36855,7.71982 -1.52473,11.64392 -0.0147,1.38471 0.0153,2.73596 0.17426,4.11268 0.0264,0.22894 0.0618,0.45681 0.0984,0.68435 0.0174,0.10776 0.15785,0.26643 0.0635,0.32123 -2.29442,1.33195 -4.68901,2.48335 -7.03351,3.72503 0.0652,0.0467 0.1309,0.18749 0.19561,0.14011 0.13235,-0.0969 -0.003,-2.69619 0.0409,-3.00846 -0.01,-1.86514 -0.0297,-3.73098 -0.0967,-5.59496 0,0 7.05854,-3.48663 7.05854,-3.48663 z"
       inkscape:connector-curvature="0" />
  </g>
  <g
     inkscape:groupmode="layer"
     id="layer3"
     inkscape:label="Layer 3"
     style="display:none">
    <path
       id="path3715"
       d="m 17.984477,70.890775 c 0.83867,-3.273081 1.737715,-6.52729 2.73575,-9.755278 1.726281,-4.974494 3.342725,-9.985771 5.072162,-14.95921 1.767013,-4.796936 3.716309,-9.523741 5.991821,-14.102144 1.48358,-3.024928 3.290419,-5.856486 5.382924,-8.490637 1.396167,-1.880955 3.054943,-3.542047 4.732335,-5.169447 2.961913,-2.660189 6.27461,-5.446644 10.193684,-6.412007 0.194024,0.0378 0.400973,0.03417 0.582075,0.113392 1.429478,0.625343 1.804853,3.091803 2.13655,4.402165 0.688907,4.80831 0.704946,9.677719 0.750234,14.524688 -0.03222,7.524166 -0.213256,15.04559 -0.179321,22.5708 0.05414,5.729208 0.228833,11.471407 1.107911,17.139671 0.40495,1.746806 0.626798,5.170376 2.235417,6.340716 -0.199639,-2.999703 0.131204,-0.0105 -6.646987,3.331829 -0.169688,0.08367 0.09052,-0.369208 0.104476,-0.557887 0.01839,-0.248809 -0.0052,-0.498952 -0.0079,-0.748425 0,0 6.922534,-3.587726 6.922534,-3.587726 v 0 c 0.04741,0.386453 0.194554,1.43078 0.119899,1.487652 -6.511121,4.960075 -4.701516,6.174584 -7.221014,4.195056 -1.549265,-1.956282 -1.650968,-4.654553 -2.045404,-7.012549 -0.74713,-5.793152 -0.818713,-11.627363 -0.699516,-17.463235 0.0061,-7.471309 0.04234,-14.942775 -0.108783,-22.41233 -0.109204,-4.727826 -0.138192,-9.507267 -1.046083,-14.163813 -0.219168,-0.781278 -0.648348,-2.873408 -1.441564,-3.338992 -0.287412,-0.168698 -0.468032,-0.06164 -0.757394,0.0089 -2.51579,1.200391 -2.410523,1.168385 5.644272,-3.392216 0.199004,-0.112674 -0.340654,0.30573 -0.520885,0.446491 -0.663715,0.518361 -1.349455,1.007242 -1.960174,1.593107 -1.760503,1.559229 -3.427931,3.259453 -4.877551,5.111145 -0.225901,0.273878 -1.634845,1.976377 -1.82449,2.230093 -1.459034,1.951967 -2.654461,4.10045 -3.848584,6.217598 -2.384708,4.534297 -4.36218,9.269545 -6.152555,14.067542 -1.745437,4.912582 -3.298573,9.888839 -4.902988,14.848747 -0.967608,3.128716 -1.84493,6.29059 -2.420945,9.517777 0,0 -7.04993,3.418548 -7.04993,3.418548 z"
       inkscape:connector-curvature="0"
       style="stroke-width:0.26458332" />
    <path
       id="path3717"
       d="m 42.013594,42.902023 c 1.230128,0.09674 2.434032,0.0061 3.649599,-0.161925 0.222399,-0.06029 0.444794,-0.120579 0.667192,-0.180869 0,0 -6.223875,4.733737 -6.223875,4.733737 v 0 c -0.237916,0.04225 -0.475835,0.08449 -0.713751,0.126743 -1.261473,0.150958 -2.525078,0.109514 -3.793331,0.142478 0,0 6.414166,-4.660164 6.414166,-4.660164 z"
       inkscape:connector-curvature="0"
       style="stroke-width:0.26458332" />
    <path
       id="path3719"
       d="m 71.980048,59.184793 c 0.270193,2.019636 0.531876,4.038217 0.70879,6.068814 0.162507,1.842164 0.190349,3.692303 0.300887,5.537198 0.291602,2.871372 0.205134,0.982048 -7.018311,3.549851 -0.228703,0.0813 0.03039,-0.484532 0.04077,-0.727036 0.01421,-0.331726 0.02331,-0.663654 0.033,-0.995542 0.04259,-1.456558 0.03199,-1.141444 0.04669,-2.645915 -0.151693,-3.322863 0.48599,-6.543636 1.333495,-9.733246 0.878036,-3.080943 2.238227,-5.942462 3.982111,-8.616106 1.114404,-1.533578 2.3919,-2.964868 3.88511,-4.137826 7.474485,-4.206444 4.503026,-4.197729 7.925583,-4.080669 0,0 -6.306978,4.690118 -6.306978,4.690118 v 0 c -2.758924,0.833884 -0.631111,0.232587 5.652468,-3.47159 -1.635281,1.006414 -2.908295,2.48299 -4.140155,3.936227 -0.325683,0.463944 -1.287772,1.818894 -1.558816,2.272496 -1.152502,1.928743 -1.914213,4.07394 -2.670167,6.177666 -0.83176,3.106682 -1.485861,6.257472 -1.300909,9.496668 0.01339,1.186085 0.03031,2.371961 0.08569,3.557029 0.01069,0.228934 0.232844,0.559364 0.042,0.686266 -2.247109,1.494219 -4.653095,2.740229 -7.052416,3.97532 -0.106611,0.05488 0.01781,-0.239155 0.02673,-0.35873 0.06018,-1.855841 -0.0044,-3.715854 -0.11892,-5.568315 -0.163076,-1.978303 -0.388183,-3.949319 -0.886865,-5.875388 0,0 6.99022,-3.73729 6.99022,-3.73729 z"
       inkscape:connector-curvature="0"
       style="stroke-width:0.26458332" />
    <path
       id="path3721"
       d="m 94.359795,54.008099 c -0.806148,1.81646 -1.353833,3.742563 -1.846628,5.664829 -0.34318,2.191843 -0.820801,4.028255 0.379931,6.021348 1.554705,1.180931 3.356864,0.554186 4.958258,-0.171225 2.792814,-1.598308 1.195342,-0.682196 -4.810305,2.716898 0,0 7.186699,-2.807301 7.186699,-2.807301 v 0 c -7.805136,4.590926 -4.883599,3.17137 -8.445637,4.860653 -1.974694,0.681344 -4.047829,0.940892 -5.625994,-0.710187 -0.395941,-0.713552 -0.603655,-0.970981 -0.781865,-1.800474 -0.338286,-1.574593 0.08719,-3.231629 0.235148,-4.798912 0.450602,-1.919385 1.018257,-3.801753 1.51832,-5.703612 0,0 7.232073,-3.272017 7.232073,-3.272017 z"
       inkscape:connector-curvature="0"
       style="stroke-width:0.26458332" />
    <path
       id="path3723"
       d="m 112.47378,51.977107 c -1.47125,1.201774 -2.56154,2.755926 -3.44522,4.419269 -0.721,1.424398 -1.12936,3.066812 -0.56817,4.604115 0.10262,0.144344 0.16936,0.322657 0.30786,0.43303 0.69916,0.557157 2.50792,-0.04294 3.2281,-0.280685 2.27536,-1.460117 6.56607,-3.247846 -4.222,2.335807 -0.30743,0.159118 0.53215,-0.443145 0.78935,-0.674835 0.79183,-0.713301 0.78462,-0.742344 1.49468,-1.518119 1.30325,-1.516139 2.4151,-3.196267 3.25045,-5.012504 0.49445,-1.118061 0.58692,-2.343428 1.02151,-3.479165 2.37817,-1.280404 4.65634,-2.767058 7.13451,-3.841216 0.22193,-0.0962 0.33468,0.35001 0.48759,0.537424 0.73695,0.903201 1.40995,1.865858 2.13918,2.778189 1.4982,1.541428 2.87508,2.550054 5.00703,2.972895 0.31975,0.03188 0.63951,0.06375 0.95926,0.09563 0,0 -6.32377,4.46505 -6.32377,4.46505 v 0 c -0.33175,-0.0568 -0.6635,-0.113601 -0.99525,-0.170402 -2.10941,-0.612026 -3.80724,-1.757595 -5.28571,-3.385706 -0.58609,-0.700122 -1.15754,-1.417489 -1.75023,-2.111148 -0.13657,-0.159842 -0.26638,-0.330372 -0.4329,-0.458713 -0.0667,-0.05144 -0.31658,-0.01953 -0.2447,-0.06352 2.18208,-1.335672 4.42625,-2.567151 6.63938,-3.850727 -0.0966,0.02796 -0.21449,0.01717 -0.28971,0.08389 -0.73122,0.648446 -0.45103,2.384885 -1.00729,3.191502 -0.79717,1.897071 -1.90401,3.642908 -3.19982,5.241581 -2.91545,3.590303 -7.10693,5.830057 -11.33953,7.605017 -1.55937,0.355555 -3.33568,0.542509 -4.20804,-1.100958 -0.63345,-1.735669 -0.43391,-3.55164 0.35059,-5.217425 0.0872,-0.170624 0.85141,-1.672738 0.93875,-1.818195 0.62321,-1.038011 1.53497,-1.841571 2.19695,-2.850266 0,0 7.36715,-2.929808 7.36715,-2.929808 z"
       inkscape:connector-curvature="0"
       style="stroke-width:0.26458332" />
    <path
       id="path3725"
       d="m 137.12292,49.197246 c -0.9928,1.507861 -1.73093,3.152643 -2.43069,4.810503 -0.58423,1.447761 -1.25684,2.988088 -0.82355,4.557954 0.59721,0.979879 1.42582,0.538988 2.1772,0.02066 -11.58482,6.500214 -6.37231,3.985664 -4.14114,2.078095 0.70762,-0.604985 0.77244,-0.716304 1.41492,-1.409454 2.33753,-2.545593 3.86399,-5.628965 5.28918,-8.741113 2.34849,-5.243187 3.56685,-10.869613 4.55151,-16.500366 0.96487,-5.972977 1.1707,-12.019635 1.17425,-18.057998 -0.10598,-1.83594 0.0851,-3.708046 -0.19013,-5.535874 -0.039,-0.258727 -0.0886,-0.5258631 -0.21513,-0.7548759 -0.0309,-0.05599 -0.2481,0.048624 -0.19084,0.020106 2.21429,-1.1028505 4.44833,-2.1655775 6.6725,-3.2483665 -0.17204,0.2780929 -0.37719,0.5382537 -0.51613,0.8342791 -0.37197,0.7925308 -0.84066,2.3852912 -1.05247,3.1561433 -0.78138,2.843678 -1.33738,5.716578 -1.8575,8.617125 -1.39797,8.182347 -2.45522,16.43218 -3.01499,24.715194 -0.31218,4.436946 -0.20139,8.872175 0.83099,13.205124 0.49256,1.386721 0.20818,0.757393 0.81801,1.90346 0,0 -6.73645,3.826981 -6.73645,3.826981 v 0 c -0.59002,-1.31168 -0.32091,-0.604168 -0.77799,-2.13346 -0.91613,-4.507278 -0.84811,-9.091549 -0.42395,-13.660445 0.76215,-8.278479 2.01183,-16.503372 2.97704,-24.759522 0.61155,-4.260708 1.23022,-8.531564 2.48328,-12.6615848 2.44492,-1.3207008 4.80505,-2.8121234 7.33476,-3.9621018 0.17536,-0.079716 0.25902,0.3003947 0.31435,0.4849019 0.0899,0.2999046 0.0929,0.6201568 0.11082,0.9327451 0.10921,1.9048426 -0.0731,3.8119816 -0.0615,5.7168306 -0.15769,6.086768 -0.42453,12.166512 -1.22664,18.209403 -0.93318,5.655162 -2.13632,11.298391 -4.35788,16.606782 -1.32908,3.133966 -2.54392,6.183815 -4.81585,8.780526 -2.80566,3.421724 -6.52958,5.144336 -10.53685,7.23447 -1.22747,0.383916 -2.34434,0.05795 -2.92162,-1.164897 -0.50452,-1.746755 -0.0214,-3.45168 0.69266,-5.083024 0.6894,-1.60715 1.30036,-3.273205 2.2178,-4.766196 0,0 7.23207,-3.272017 7.23207,-3.272017 z"
       inkscape:connector-curvature="0"
       style="stroke-width:0.26458332" />
    <path
       id="path3727"
       d="m 156.91301,50.821494 c 0.94378,-1.120129 1.87443,-2.236692 2.67873,-3.462515 1.04789,-1.683543 1.31348,-3.322359 1.12025,-5.262012 -0.57707,-2.098847 -2.48165,-2.072383 -4.29417,-1.81901 -0.4029,0.155075 -0.8176,0.282421 -1.2087,0.465225 -0.42381,0.198096 -1.6399,0.901403 -1.23055,0.674904 1.75005,-0.968348 3.43967,-2.055857 5.25269,-2.900452 0.49023,-0.228375 -0.86158,0.658167 -1.24912,1.035386 -1.2499,1.216615 -1.34953,1.558194 -2.30189,3.033387 -1.35558,2.68256 -2.46503,5.711669 -1.74936,8.749538 0.12163,0.516315 0.33677,1.00603 0.50515,1.509045 1.2771,2.613486 3.64664,3.971505 6.51095,4.21105 0.64597,0.05402 1.29646,5.3e-4 1.94468,7.94e-4 3.19598,-0.21641 6.07915,-1.30688 8.98655,-2.556475 0,0 -5.68067,4.483563 -5.68067,4.483563 v 0 c -0.87889,0.362606 -1.7414,0.767802 -2.63667,1.087821 -2.15608,0.770699 -4.43198,1.210294 -6.71297,1.355701 -0.68045,-0.02918 -1.36557,-0.0028 -2.04135,-0.08754 -3.10294,-0.38924 -5.62686,-2.00746 -6.98519,-4.849339 -0.18427,-0.544325 -0.41613,-1.074799 -0.55281,-1.632977 -0.78234,-3.194722 0.23801,-6.365875 1.58757,-9.250595 0.80926,-1.420982 1.03291,-1.99948 2.12054,-3.205544 2.19015,-2.428642 7.44747,-4.874786 8.95099,-5.741167 0.41935,-0.241641 0.86685,-0.436298 1.32279,-0.598664 0.434,-0.154557 0.8916,-0.23245 1.33741,-0.348676 0.42728,-0.01677 0.85509,-0.07719 1.28186,-0.05032 1.75287,0.11035 3.29321,1.0917 3.72602,2.837082 0.21973,2.056508 0.11043,3.854841 -0.89133,5.720175 -0.72974,1.240491 -1.56695,2.377324 -2.51035,3.463899 0,0 -7.28105,3.137675 -7.28105,3.137675 z"
       inkscape:connector-curvature="0"
       style="stroke-width:0.26458332" />
    <path
       id="path3729"
       d="m 38.088003,105.9586 c -1.266171,-1.09178 -2.773804,-1.35706 -4.39335,-1.30417 -0.401939,0.0993 -0.810408,0.17522 -1.205818,0.298 -0.469852,0.14589 -0.933312,0.31462 -1.386191,0.50684 -0.489969,0.20795 -1.901362,0.95587 -1.438977,0.69222 1.607164,-0.91639 3.155413,-1.97114 4.875708,-2.65182 0.650642,-0.25744 -1.099167,0.86992 -1.60201,1.3565 -0.519946,0.50313 -0.973214,1.07088 -1.459823,1.60633 -3.823864,4.90926 -5.574315,10.95189 -7.021665,16.90272 -0.965628,5.47762 -1.963676,11.10091 -1.608656,16.6932 0.04423,0.6967 0.163295,1.38661 0.244943,2.07992 0.149454,0.53343 0.23134,1.09059 0.448363,1.60028 0.713683,1.67612 2.459677,2.52047 4.222824,2.48369 0.492127,-0.0103 0.974127,-0.14234 1.46119,-0.21351 0.514853,-0.16091 1.045207,-0.27875 1.544564,-0.48274 0.526499,-0.21507 2.012225,-1.05932 1.522489,-0.77015 -6.340769,3.74394 -5.955468,3.56275 -3.203117,1.51384 0,0 6.920565,-2.7687 6.920565,-2.7687 v 0 c -3.770344,3.10078 -1.802153,1.6232 -9.613659,5.94275 -0.511686,0.28295 -1.060073,0.50048 -1.615122,0.68433 -0.537456,0.17803 -1.100881,0.2651 -1.651321,0.39764 -0.532733,0.0251 -1.066255,0.11363 -1.598197,0.0753 -2.02534,-0.14603 -3.897925,-1.33085 -4.615511,-3.27812 -0.207175,-0.5622 -0.264134,-1.16884 -0.396202,-1.75327 -0.05954,-0.73239 -0.159558,-1.46262 -0.178615,-2.19718 -0.147858,-5.69946 1.069471,-11.37056 1.829533,-16.98537 1.356745,-5.96098 2.881729,-11.98492 6.484981,-17.04281 3.627158,-4.35767 4.481942,-4.21594 10.932421,-7.89577 1.321315,-0.75378 2.869321,-1.1302 4.360322,-1.3296 1.847639,0.0839 3.324744,0.52097 4.840896,1.60162 0,0 -6.700565,4.23805 -6.700565,4.23805 z"
       inkscape:connector-curvature="0"
       style="stroke-width:0.26458332" />
    <path
       id="path3731"
       d="m 62.865938,109.50041 c -0.411469,4.94456 -0.29682,9.91793 -0.06134,14.86824 0.476149,4.20522 0.65087,8.65578 2.356644,12.60324 0.204403,0.47303 0.48201,0.91094 0.723016,1.36641 0.623811,0.76702 1.353987,1.63985 2.453206,1.61373 0.276746,-0.007 0.538123,-0.1302 0.807185,-0.19531 0,0 -6.247159,4.61474 -6.247159,4.61474 v 0 c -0.325935,-0.018 -0.660331,0.0221 -0.977802,-0.0539 -1.19843,-0.2867 -1.977369,-1.26699 -2.615755,-2.23836 -0.22924,-0.50089 -0.494215,-0.98691 -0.687718,-1.50266 -1.546458,-4.12182 -1.611194,-8.62902 -2.141125,-12.94438 -0.236501,-4.84343 -0.360278,-9.69537 -0.673357,-14.53239 0,0 7.064208,-3.59939 7.064208,-3.59939 z"
       inkscape:connector-curvature="0"
       style="stroke-width:0.26458332" />
    <path
       id="path3733"
       d="m 75.664969,126.14158 c -0.408022,1.67376 -0.452448,3.40834 -0.509651,5.12218 -0.01368,1.9797 1.291476,1.07889 2.263074,0.36242 -10.309341,6.1417 -5.991058,3.94904 -4.175882,1.52711 0.854877,-1.14064 1.507808,-2.40966 2.186483,-3.65748 1.286824,-2.18381 2.006166,-4.66628 3.380835,-6.7952 2.073357,-2.19727 5.752039,-6.2227 8.218453,-3.90503 0.64543,0.60651 0.940996,1.48901 1.305732,2.27096 0.835705,1.98353 1.729536,3.95914 2.865167,5.79134 0.621361,1.11492 1.399855,2.03808 2.397729,2.82133 0,0 -6.595171,4.1203 -6.595171,4.1203 v 0 c -0.997109,-0.89107 -1.82403,-1.89086 -2.484914,-3.06134 -1.123955,-1.86439 -2.024356,-3.85694 -2.913594,-5.84124 -0.03029,-0.0572 -0.666729,-1.28342 -0.793335,-1.44567 -0.09887,-0.12671 -0.222144,-0.24242 -0.36626,-0.31356 -0.08509,-0.042 -0.365456,0.0419 -0.284586,-0.008 5.724012,-3.51456 8.742731,-4.65152 5.802128,-3.5099 -1.693903,1.94463 -2.327045,4.55452 -3.606271,6.7633 -0.659977,1.26881 -1.289225,2.54712 -2.077019,3.74365 -0.212606,0.32292 -1.118579,1.66849 -1.49983,1.9175 -2.41775,1.57914 -4.943541,2.98632 -7.415313,4.47948 -0.262877,0.11425 -0.511464,0.26972 -0.788636,0.34276 -1.41696,0.37336 -2.441321,-0.75233 -2.352685,-2.10566 0.08321,-1.72087 0.15686,-3.44585 0.311269,-5.16105 0,0 7.132277,-3.45848 7.132277,-3.45848 z"
       inkscape:connector-curvature="0"
       style="stroke-width:0.26458332" />
    <path
       id="path3735"
       d="m 100.77426,113.87647 c -0.61272,1.22575 -0.996388,2.5747 -1.203184,3.92627 0.06218,1.59881 0.744434,2.22284 2.285964,2.37145 1.75743,0.14792 3.44868,-0.31717 5.14311,-0.69847 1.75749,-0.45108 3.51965,-0.52659 5.15266,0.32606 1.47567,1.25233 0.33865,2.80932 -0.54922,4.04128 -1.714,2.23579 -3.82587,4.11839 -5.78808,6.12911 -1.27842,1.27549 -0.66747,0.65877 -1.83445,1.84857 0,0 -7.087882,2.94141 -7.087882,2.94141 v 0 c 1.220573,-1.22967 0.580548,-0.60197 1.923727,-1.87938 1.908045,-1.97109 3.950975,-3.82164 5.669915,-5.96461 0.33406,-0.44539 1.39215,-1.70059 1.49318,-2.25293 0.0501,-0.27367 -0.20303,-0.40026 -0.36344,-0.54449 -1.55812,-0.65335 -3.1952,-0.33308 -4.78985,0.0531 -1.764142,0.39941 -3.553829,0.74238 -5.367791,0.46651 -1.86132,-0.5052 -2.650199,-1.43913 -2.87147,-3.37742 0.108429,-1.41262 0.559411,-2.75968 0.954741,-4.11444 0,0 7.23207,-3.27202 7.23207,-3.27202 z"
       inkscape:connector-curvature="0"
       style="stroke-width:0.26458332" />
    <path
       id="path3737"
       d="m 121.15764,113.70778 c 0.32318,1.3978 1.00506,2.01641 2.32974,2.46682 2.12583,0.5263 4.33154,0.54362 6.50872,0.57669 1.25577,0.11905 3.51208,-0.40424 4.46475,0.66306 0.14607,0.16364 0.21409,0.38291 0.32113,0.57437 0.0266,0.21453 0.0982,0.4282 0.0798,0.64358 -0.13249,1.54898 -2.1176,3.20688 -3.14206,4.20306 -2.03716,2.01084 -4.21442,3.86035 -6.48512,5.59992 0,0 -7.11365,2.8261 -7.11365,2.8261 v 0 c 2.31361,-1.67467 4.50702,-3.5039 6.53682,-5.5158 1.18556,-1.13389 2.61876,-2.30787 3.26871,-3.85066 -0.36788,-0.99192 -3.31012,-0.50882 -4.17014,-0.62982 -2.25226,-0.0589 -4.54039,-0.1119 -6.71508,-0.76355 -1.67333,-0.72158 -2.21942,-1.3809 -2.87381,-3.05648 0,0 6.99022,-3.73729 6.99022,-3.73729 z"
       inkscape:connector-curvature="0"
       style="stroke-width:0.26458332" />
    <path
       id="path3739"
       d="m 160.63115,113.9631 c -0.3983,1.84997 -0.255,3.67875 0.52048,5.39932 1.30492,1.84756 3.08597,2.09622 5.19046,1.75918 0.35085,-0.10043 0.71268,-0.16834 1.05254,-0.30127 0.38057,-0.14886 0.7414,-0.34522 1.10022,-0.54077 0.37172,-0.2026 1.4593,-0.85881 1.08954,-0.65265 -5.63314,3.14065 -7.25359,4.4434 -4.59632,2.41682 0,0 7.13014,-2.8667 7.13014,-2.8667 v 0 c -3.10334,2.66708 -0.82739,0.804 -8.49279,5.26181 -1.08078,0.62853 -2.22876,1.12661 -3.47977,1.2779 -2.45869,0.10113 -4.29311,-0.44858 -5.76183,-2.54752 -0.77578,-1.83109 -1.04196,-3.73894 -0.83389,-5.72373 0,0 7.08122,-3.48239 7.08122,-3.48239 z"
       inkscape:connector-curvature="0"
       style="stroke-width:0.26458332" />
    <path
       id="path3741"
       d="m 144.67557,116.45983 c 0.088,1.99619 0.43313,3.96449 0.65878,5.94709 0,0 -6.83932,3.58006 -6.83932,3.58006 v 0 c -0.20825,-1.9478 -0.49177,-3.88803 -0.8061,-5.8207 0,0 6.98664,-3.70645 6.98664,-3.70645 z"
       inkscape:connector-curvature="0"
       style="stroke-width:0.26458332" />
    <path
       id="path3743"
       d="m 140.40105,99.809759 c 0.14587,0.993431 0.19341,2.096391 0.80709,2.933371 0,0 -6.83511,3.98147 -6.83511,3.98147 v 0 c -0.55304,-0.98487 -0.76173,-2.07616 -0.9622,-3.17755 0,0 6.99022,-3.737291 6.99022,-3.737291 z"
       inkscape:connector-curvature="0"
       style="stroke-width:0.26458332" />
    <path
       id="path3745"
       d="m 182.75305,107.93264 c 1.4826,0.67443 3.09747,1.0665 4.68279,1.43334 1.0861,0.27974 2.3573,0.83702 2.19018,2.19025 -0.033,0.26689 -0.16265,0.51266 -0.24398,0.769 -1.22777,2.08666 -2.88485,3.91783 -4.49391,5.72118 -1.39045,1.43746 -2.61969,3.01212 -3.87941,4.56134 -2.16218,2.5127 -4.19421,3.08146 -7.92043,5.05828 -0.32049,0.17002 -0.58075,-0.51595 -0.65165,-0.87175 -0.039,-0.19576 0.0348,-0.3977 0.0521,-0.59655 0,0 7.10592,-3.43089 7.10592,-3.43089 v 0 c -0.0469,0.0965 -0.0364,0.26422 -0.14066,0.28941 -0.77936,0.18826 0.27774,-0.62988 -0.19585,-0.36195 -11.85045,6.70441 -7.4453,4.91847 -5.41703,2.96127 1.31588,-1.55985 2.55494,-3.18395 3.98165,-4.64784 1.60554,-1.69444 3.12511,-3.50459 4.44539,-5.42875 0.0677,-0.10364 0.45526,-0.62035 0.45827,-0.84282 0.008,-0.62744 -1.35753,-0.80683 -1.6992,-0.94895 -1.64153,-0.43785 -3.3042,-0.85211 -4.87188,-1.51355 0,0 6.59765,-4.34102 6.59765,-4.34102 z"
       inkscape:connector-curvature="0"
       style="stroke-width:0.26458332" />
    <path
       id="path3747"
       d="m 182.05194,105.53846 c -1.72988,0.7229 -3.43259,1.5128 -5.09086,2.38733 -3.31001,1.95368 1.86221,-1.10364 4.77841,-2.73704 0.30119,-0.1687 -0.57896,0.37629 -0.86339,0.57191 -0.70222,0.48295 -0.79022,0.56639 -1.43505,1.07002 0,0 -7.21527,2.90507 -7.21527,2.90507 v 0 c 3.21084,-2.74837 7.06125,-4.59331 10.74622,-6.62885 1.74457,-0.87248 3.51129,-1.70203 5.30675,-2.46496 0,0 -6.22681,4.89652 -6.22681,4.89652 z"
       inkscape:connector-curvature="0"
       style="stroke-width:0.26458332" />
    <path
       id="path3749"
       d="m 180.00393,108.51866 c 1.18874,0.69344 2.59722,0.64702 3.90766,0.42521 0,0 -6.23001,4.64338 -6.23001,4.64338 v 0 c -1.52711,0.12154 -3.04276,-0.005 -4.37822,-0.83053 0,0 6.70057,-4.23806 6.70057,-4.23806 z"
       inkscape:connector-curvature="0"
       style="stroke-width:0.26458332" />
  </g>
</svg>
